<svg id="svg" version="1.1" xmlns="http://www.w3.org/2000/svg" xmlns:xlink="http://www.w3.org/1999/xlink" width="400" height="400" viewBox="0, 0, 400,400"><g id="svgg"><path id="path0" d="M106.400 104.540 L 106.400 111.600 107.380 111.600 C 110.641 111.600,116.663 114.141,120.203 117.010 C 125.405 121.228,128.201 124.978,133.614 135.000 C 134.565 136.760,135.850 139.063,136.471 140.118 C 137.092 141.172,137.600 142.125,137.600 142.234 C 137.600 142.344,137.782 142.651,138.004 142.917 C 138.226 143.183,139.330 144.840,140.456 146.600 C 141.582 148.360,142.624 149.890,142.771 150.000 C 142.918 150.110,143.468 150.830,143.992 151.600 C 147.924 157.375,158.525 168.586,164.149 172.917 C 166.034 174.368,165.970 174.708,163.473 176.495 C 154.782 182.717,144.810 195.492,141.143 205.100 C 140.955 205.595,140.620 206.450,140.400 207.000 C 139.424 209.441,139.264 209.900,138.799 211.600 C 138.529 212.590,138.167 213.850,137.996 214.400 C 137.825 214.950,137.497 216.390,137.266 217.600 C 137.035 218.810,136.628 220.880,136.360 222.200 C 135.697 225.476,135.698 241.350,136.362 245.000 C 137.506 251.287,139.045 257.041,140.480 260.400 C 140.715 260.950,141.044 261.760,141.212 262.200 C 144.551 270.972,152.695 281.800,161.214 288.795 C 162.416 289.781,163.490 290.693,163.600 290.821 C 163.710 290.948,164.611 291.604,165.602 292.278 C 188.387 307.772,220.210 305.874,240.400 287.818 C 247.754 281.240,254.536 272.455,257.860 265.200 C 258.799 263.152,259.553 261.349,260.204 259.600 C 260.573 258.610,261.017 257.440,261.192 257.000 C 261.488 256.251,261.856 254.935,262.782 251.300 C 263.167 249.789,263.631 247.028,264.389 241.723 C 265.368 234.875,264.631 223.316,262.737 215.800 C 262.515 214.920,262.151 213.480,261.928 212.600 C 261.705 211.720,261.360 210.687,261.161 210.305 C 260.962 209.923,260.800 209.336,260.800 209.000 C 260.800 208.664,260.641 208.077,260.447 207.695 C 260.252 207.313,259.914 206.550,259.695 206.000 C 255.425 195.293,248.055 185.452,238.516 177.723 C 234.387 174.378,234.389 174.384,237.338 172.130 C 248.271 163.774,258.846 150.201,268.327 132.353 C 275.194 119.426,284.581 111.600,293.220 111.600 L 294.400 111.600 294.400 104.540 L 294.400 97.480 289.659 97.748 C 279.731 98.309,271.392 100.777,265.831 104.800 C 264.123 106.036,258.094 112.287,256.380 114.600 C 255.402 115.920,254.500 117.090,254.376 117.200 C 252.967 118.446,247.100 128.024,243.350 135.200 C 242.717 136.410,242.065 137.460,241.900 137.533 C 241.735 137.607,241.600 137.844,241.600 138.061 C 241.600 138.439,239.318 141.984,238.807 142.400 C 238.672 142.510,238.124 143.230,237.590 144.000 C 232.833 150.855,220.088 161.200,216.399 161.200 C 216.174 161.200,215.677 161.362,215.295 161.561 C 214.913 161.760,213.880 162.108,213.000 162.336 C 202.854 164.959,196.736 164.888,186.200 162.021 C 183.730 161.349,178.305 158.877,178.067 158.315 C 177.993 158.142,177.712 158.000,177.442 158.000 C 177.172 158.000,176.602 157.685,176.175 157.300 C 175.748 156.915,174.679 156.071,173.800 155.423 C 170.006 152.633,161.600 142.880,161.600 141.268 C 161.600 141.047,161.464 140.807,161.298 140.733 C 161.132 140.660,160.390 139.340,159.649 137.800 C 158.384 135.171,158.122 134.568,157.257 132.300 C 154.717 125.646,148.871 117.182,141.600 109.636 C 134.883 102.665,124.250 98.548,110.900 97.749 L 106.400 97.480 106.400 104.540 M211.200 185.579 C 215.637 186.828,221.625 189.339,221.933 190.080 C 222.007 190.256,222.288 190.400,222.558 190.400 C 222.828 190.400,223.406 190.733,223.843 191.139 C 224.279 191.546,224.826 191.951,225.057 192.039 C 226.539 192.605,232.619 198.351,235.015 201.450 C 238.169 205.529,238.641 206.296,241.017 211.200 C 241.816 212.850,242.635 214.513,242.835 214.895 C 243.036 215.277,243.200 215.941,243.200 216.371 C 243.200 216.801,243.360 217.252,243.556 217.373 C 243.751 217.494,244.004 218.179,244.116 218.896 C 244.229 219.613,244.622 221.460,244.991 223.000 C 245.824 226.477,245.977 238.949,245.232 242.600 C 244.462 246.371,243.671 249.220,242.760 251.500 C 242.562 251.995,242.238 252.805,242.041 253.300 C 234.434 272.359,214.685 284.347,194.900 281.916 C 188.798 281.166,179.727 278.209,178.000 276.407 C 177.890 276.293,177.305 275.944,176.700 275.632 C 176.095 275.320,175.600 274.915,175.600 274.732 C 175.600 274.550,175.333 274.400,175.007 274.400 C 174.110 274.400,165.133 265.339,163.285 262.569 C 160.179 257.911,157.455 252.459,156.606 249.200 C 156.463 248.650,156.177 247.570,155.969 246.800 C 154.328 240.699,153.894 230.562,155.020 224.600 C 155.352 222.840,155.733 220.721,155.866 219.890 C 155.999 219.060,156.264 218.284,156.454 218.167 C 156.644 218.049,156.800 217.601,156.800 217.171 C 156.800 216.741,156.959 216.077,157.153 215.695 C 157.348 215.313,157.684 214.550,157.901 214.000 C 158.117 213.450,158.883 211.830,159.602 210.400 C 160.320 208.970,161.109 207.396,161.354 206.903 C 161.599 206.410,161.935 206.005,162.100 206.003 C 162.265 206.001,162.400 205.822,162.400 205.604 C 162.400 204.900,166.122 200.274,169.000 197.400 C 176.257 190.156,183.551 186.430,194.000 184.629 C 196.891 184.130,208.293 184.760,211.200 185.579 " stroke="none" fill="#fbfbfc" fill-rule="evenodd"></path><path id="path1" d="M30.100 0.291 C 29.165 0.376,28.400 0.616,28.400 0.823 C 28.400 1.030,28.076 1.200,27.680 1.200 C 27.284 1.200,26.781 1.379,26.562 1.598 C 26.344 1.816,25.678 2.036,25.082 2.085 C 24.487 2.134,24.000 2.315,24.000 2.487 C 24.000 2.659,23.640 2.800,23.200 2.800 C 22.760 2.800,22.400 2.980,22.400 3.200 C 22.400 3.420,22.040 3.600,21.600 3.600 C 21.160 3.600,20.800 3.780,20.800 4.000 C 20.800 4.220,20.440 4.400,20.000 4.400 C 19.560 4.400,19.200 4.568,19.200 4.773 C 19.200 4.978,18.834 5.262,18.387 5.404 C 17.940 5.546,17.142 6.094,16.614 6.622 C 16.086 7.150,15.420 7.631,15.134 7.691 C 14.848 7.751,14.029 8.385,13.314 9.100 C 12.599 9.815,11.831 10.400,11.607 10.400 C 11.383 10.400,11.245 10.625,11.300 10.900 C 11.355 11.175,11.175 11.355,10.900 11.300 C 10.625 11.245,10.400 11.383,10.400 11.607 C 10.400 11.831,9.815 12.599,9.100 13.314 C 8.385 14.029,7.751 14.848,7.691 15.134 C 7.631 15.420,7.150 16.086,6.622 16.614 C 6.094 17.142,5.546 17.940,5.404 18.387 C 5.262 18.834,4.978 19.200,4.773 19.200 C 4.568 19.200,4.400 19.560,4.400 20.000 C 4.400 20.440,4.220 20.800,4.000 20.800 C 3.780 20.800,3.600 21.160,3.600 21.600 C 3.600 22.040,3.420 22.400,3.200 22.400 C 2.980 22.400,2.800 22.760,2.800 23.200 C 2.800 23.640,2.659 24.000,2.487 24.000 C 2.315 24.000,2.134 24.487,2.085 25.082 C 2.036 25.678,1.816 26.344,1.598 26.562 C 1.379 26.781,1.200 27.269,1.200 27.647 C 1.200 28.024,0.975 28.408,0.700 28.500 C -0.036 28.745,-0.036 371.255,0.700 371.500 C 0.975 371.592,1.200 371.976,1.200 372.353 C 1.200 372.731,1.379 373.219,1.598 373.438 C 1.816 373.656,2.036 374.322,2.085 374.918 C 2.134 375.513,2.315 376.000,2.487 376.000 C 2.659 376.000,2.800 376.360,2.800 376.800 C 2.800 377.240,2.980 377.600,3.200 377.600 C 3.420 377.600,3.600 377.960,3.600 378.400 C 3.600 378.840,3.780 379.200,4.000 379.200 C 4.220 379.200,4.400 379.560,4.400 380.000 C 4.400 380.440,4.568 380.800,4.773 380.800 C 4.978 380.800,5.262 381.166,5.404 381.613 C 5.546 382.060,6.094 382.858,6.622 383.386 C 7.150 383.914,7.631 384.580,7.691 384.866 C 7.751 385.152,8.385 385.971,9.100 386.686 C 9.815 387.401,10.400 388.169,10.400 388.393 C 10.400 388.617,10.625 388.755,10.900 388.700 C 11.175 388.645,11.355 388.825,11.300 389.100 C 11.245 389.375,11.383 389.600,11.607 389.600 C 11.831 389.600,12.599 390.185,13.314 390.900 C 14.029 391.615,14.848 392.249,15.134 392.309 C 15.420 392.369,16.086 392.850,16.614 393.378 C 17.142 393.906,17.940 394.454,18.387 394.596 C 18.834 394.738,19.200 395.022,19.200 395.227 C 19.200 395.432,19.560 395.600,20.000 395.600 C 20.440 395.600,20.800 395.780,20.800 396.000 C 20.800 396.220,21.160 396.400,21.600 396.400 C 22.040 396.400,22.400 396.580,22.400 396.800 C 22.400 397.020,22.760 397.200,23.200 397.200 C 23.640 397.200,24.000 397.341,24.000 397.513 C 24.000 397.685,24.487 397.866,25.082 397.915 C 25.678 397.964,26.344 398.184,26.562 398.402 C 26.781 398.621,27.269 398.800,27.647 398.800 C 28.024 398.800,28.408 399.025,28.500 399.300 C 28.745 400.036,371.255 400.036,371.500 399.300 C 371.592 399.025,371.976 398.800,372.353 398.800 C 372.731 398.800,373.219 398.621,373.438 398.402 C 373.656 398.184,374.322 397.964,374.918 397.915 C 375.513 397.866,376.000 397.685,376.000 397.513 C 376.000 397.341,376.360 397.200,376.800 397.200 C 377.240 397.200,377.600 397.020,377.600 396.800 C 377.600 396.580,377.960 396.400,378.400 396.400 C 378.840 396.400,379.200 396.220,379.200 396.000 C 379.200 395.780,379.560 395.600,380.000 395.600 C 380.440 395.600,380.800 395.432,380.800 395.227 C 380.800 395.022,381.166 394.738,381.613 394.596 C 382.060 394.454,382.858 393.906,383.386 393.378 C 383.914 392.850,384.580 392.369,384.866 392.309 C 385.152 392.249,385.971 391.615,386.686 390.900 C 387.401 390.185,388.169 389.600,388.393 389.600 C 388.617 389.600,388.755 389.375,388.700 389.100 C 388.645 388.825,388.825 388.645,389.100 388.700 C 389.375 388.755,389.600 388.617,389.600 388.393 C 389.600 388.169,390.185 387.401,390.900 386.686 C 391.615 385.971,392.249 385.152,392.309 384.866 C 392.369 384.580,392.850 383.914,393.378 383.386 C 393.906 382.858,394.454 382.060,394.596 381.613 C 394.738 381.166,395.022 380.800,395.227 380.800 C 395.432 380.800,395.600 380.440,395.600 380.000 C 395.600 379.560,395.780 379.200,396.000 379.200 C 396.220 379.200,396.400 378.840,396.400 378.400 C 396.400 377.960,396.580 377.600,396.800 377.600 C 397.020 377.600,397.200 377.240,397.200 376.800 C 397.200 376.360,397.341 376.000,397.513 376.000 C 397.685 376.000,397.866 375.513,397.915 374.918 C 397.964 374.322,398.184 373.656,398.402 373.438 C 398.621 373.219,398.800 372.731,398.800 372.353 C 398.800 371.976,399.025 371.592,399.300 371.500 C 400.036 371.255,400.036 28.745,399.300 28.500 C 399.025 28.408,398.800 28.024,398.800 27.647 C 398.800 27.269,398.621 26.781,398.402 26.562 C 398.184 26.344,397.964 25.678,397.915 25.082 C 397.866 24.487,397.685 24.000,397.513 24.000 C 397.341 24.000,397.200 23.640,397.200 23.200 C 397.200 22.760,397.020 22.400,396.800 22.400 C 396.580 22.400,396.400 22.040,396.400 21.600 C 396.400 21.160,396.220 20.800,396.000 20.800 C 395.780 20.800,395.600 20.440,395.600 20.000 C 395.600 19.560,395.432 19.200,395.227 19.200 C 395.022 19.200,394.738 18.834,394.596 18.387 C 394.454 17.940,393.906 17.142,393.378 16.614 C 392.850 16.086,392.369 15.420,392.309 15.134 C 392.249 14.848,391.615 14.029,390.900 13.314 C 390.185 12.599,389.600 11.831,389.600 11.607 C 389.600 11.383,389.375 11.245,389.100 11.300 C 388.825 11.355,388.645 11.175,388.700 10.900 C 388.755 10.625,388.617 10.400,388.393 10.400 C 388.169 10.400,387.401 9.815,386.686 9.100 C 385.971 8.385,385.152 7.751,384.866 7.691 C 384.580 7.631,383.914 7.150,383.386 6.622 C 382.858 6.094,382.060 5.546,381.613 5.404 C 381.166 5.262,380.800 4.978,380.800 4.773 C 380.800 4.568,380.440 4.400,380.000 4.400 C 379.560 4.400,379.200 4.220,379.200 4.000 C 379.200 3.780,378.840 3.600,378.400 3.600 C 377.960 3.600,377.600 3.420,377.600 3.200 C 377.600 2.980,377.240 2.800,376.800 2.800 C 376.360 2.800,376.000 2.659,376.000 2.487 C 376.000 2.315,375.513 2.134,374.918 2.085 C 374.322 2.036,373.656 1.816,373.438 1.598 C 373.219 1.379,372.731 1.200,372.353 1.200 C 371.976 1.200,371.592 0.975,371.500 0.700 C 371.343 0.229,35.199 -0.174,30.100 0.291 M116.749 97.431 C 135.594 100.229,150.399 112.915,158.494 133.200 C 158.714 133.750,159.052 134.513,159.247 134.895 C 159.441 135.277,159.600 135.847,159.600 136.161 C 159.600 136.476,159.736 136.793,159.902 136.867 C 160.068 136.940,160.792 138.170,161.511 139.600 C 164.327 145.199,174.836 156.800,177.092 156.800 C 177.371 156.800,177.601 156.935,177.603 157.100 C 177.605 157.265,178.010 157.598,178.503 157.840 C 178.996 158.083,180.210 158.690,181.200 159.190 C 182.190 159.691,183.313 160.258,183.695 160.450 C 184.077 160.643,184.716 160.800,185.115 160.800 C 185.514 160.800,186.011 160.951,186.220 161.136 C 186.429 161.320,187.680 161.695,189.000 161.969 C 190.320 162.242,192.195 162.641,193.166 162.855 C 199.612 164.277,212.048 162.629,218.095 159.553 C 218.477 159.359,219.062 159.200,219.395 159.200 C 219.728 159.200,220.000 159.041,220.000 158.847 C 220.000 158.652,220.315 158.393,220.700 158.271 C 221.396 158.051,223.618 156.787,224.000 156.395 C 224.110 156.281,225.190 155.388,226.400 154.408 C 229.201 152.141,233.761 147.583,235.812 145.000 C 236.685 143.900,237.502 142.910,237.626 142.800 C 238.182 142.309,240.400 138.813,240.400 138.428 C 240.400 138.193,240.535 137.999,240.700 137.997 C 240.865 137.995,241.198 137.590,241.441 137.097 C 244.759 130.344,252.448 117.668,253.995 116.400 C 254.129 116.290,254.670 115.583,255.197 114.829 C 260.351 107.458,267.110 102.075,274.200 99.696 C 279.440 97.938,283.573 97.196,289.700 96.914 L 294.800 96.679 294.800 104.497 C 294.800 113.213,294.945 112.800,291.896 112.800 C 287.621 112.800,280.543 116.706,276.916 121.066 C 276.082 122.069,274.995 123.311,274.500 123.826 C 274.005 124.342,273.600 124.918,273.600 125.106 C 273.600 125.295,273.285 125.807,272.900 126.245 C 271.986 127.284,271.854 127.514,267.518 135.600 C 266.752 137.030,265.638 139.010,265.045 140.000 C 264.451 140.990,263.862 142.115,263.736 142.500 C 263.610 142.885,263.348 143.200,263.153 143.200 C 262.959 143.200,262.800 143.387,262.800 143.615 C 262.800 144.011,258.143 151.182,257.614 151.600 C 257.475 151.710,256.929 152.430,256.400 153.200 C 255.871 153.970,255.335 154.690,255.209 154.800 C 255.083 154.910,254.355 155.810,253.592 156.800 C 249.918 161.565,240.610 170.887,236.856 173.560 L 235.550 174.490 236.475 175.122 C 236.984 175.469,237.490 175.855,237.600 175.979 C 237.710 176.103,238.520 176.739,239.400 177.393 C 245.308 181.781,254.368 192.649,256.829 198.300 C 257.141 199.015,257.531 199.600,257.698 199.600 C 257.864 199.600,258.000 199.960,258.000 200.400 C 258.000 200.840,258.180 201.200,258.400 201.200 C 258.620 201.200,258.800 201.453,258.800 201.762 C 258.800 202.247,259.352 203.520,260.850 206.495 C 261.043 206.877,261.200 207.541,261.200 207.971 C 261.200 208.401,261.380 208.864,261.600 209.000 C 261.820 209.136,262.000 209.676,262.000 210.200 C 262.000 210.724,262.180 211.264,262.400 211.400 C 262.620 211.536,262.800 212.166,262.800 212.800 C 262.800 213.434,262.961 214.052,263.158 214.174 C 263.355 214.295,263.617 215.071,263.742 215.897 C 263.867 216.724,264.159 218.480,264.392 219.800 C 265.716 227.302,265.716 239.898,264.392 247.400 C 264.159 248.720,263.867 250.476,263.742 251.303 C 263.617 252.129,263.355 252.905,263.158 253.026 C 262.961 253.148,262.800 253.766,262.800 254.400 C 262.800 255.034,262.620 255.664,262.400 255.800 C 262.180 255.936,262.000 256.399,262.000 256.829 C 262.000 257.259,261.841 257.923,261.647 258.305 C 261.306 258.975,260.787 260.208,260.049 262.100 C 256.107 272.206,247.274 283.757,238.408 290.400 C 237.674 290.950,236.845 291.625,236.565 291.900 C 236.286 292.175,235.947 292.400,235.812 292.400 C 235.677 292.400,235.211 292.731,234.777 293.136 C 234.342 293.541,233.495 294.126,232.893 294.435 C 232.292 294.745,231.710 295.110,231.600 295.247 C 231.218 295.721,222.986 299.520,220.600 300.323 C 208.434 304.417,192.344 304.504,180.436 300.541 C 175.429 298.874,165.281 293.608,164.000 292.011 C 163.890 291.874,163.178 291.327,162.419 290.796 C 154.043 284.939,144.225 272.032,139.905 261.200 C 139.686 260.650,139.348 259.887,139.153 259.505 C 138.959 259.123,138.800 258.536,138.800 258.200 C 138.800 257.864,138.642 257.277,138.449 256.895 C 137.880 255.767,137.200 253.404,137.200 252.552 C 137.200 252.116,137.038 251.589,136.841 251.380 C 136.644 251.171,136.370 250.190,136.234 249.200 C 136.097 248.210,135.775 245.960,135.518 244.200 C 134.914 240.072,134.914 227.128,135.518 223.000 C 135.775 221.240,136.097 218.990,136.234 218.000 C 136.370 217.010,136.644 216.029,136.841 215.820 C 137.038 215.611,137.200 215.084,137.200 214.648 C 137.200 213.796,137.880 211.433,138.449 210.305 C 138.642 209.923,138.800 209.336,138.800 209.000 C 138.800 208.664,138.959 208.077,139.153 207.695 C 139.348 207.313,139.686 206.550,139.905 206.000 C 144.386 194.764,154.569 181.513,163.328 175.520 C 164.633 174.628,164.885 173.600,163.800 173.600 C 163.507 173.600,163.207 173.465,163.133 173.300 C 163.060 173.135,162.280 172.392,161.400 171.648 C 157.523 168.372,150.961 161.685,147.777 157.766 C 144.535 153.775,143.982 153.052,143.289 151.900 C 142.925 151.295,142.486 150.800,142.314 150.800 C 142.141 150.800,142.000 150.545,142.000 150.233 C 142.000 149.922,141.855 149.607,141.677 149.533 C 141.209 149.341,138.800 145.735,138.800 145.228 C 138.800 144.993,138.650 144.800,138.468 144.800 C 138.285 144.800,137.886 144.305,137.582 143.700 C 137.278 143.095,136.733 142.150,136.371 141.600 C 136.009 141.050,134.843 138.980,133.779 137.000 C 124.723 120.143,117.036 112.800,108.445 112.800 C 105.147 112.800,105.200 112.933,105.200 104.653 C 105.200 100.627,105.320 97.213,105.467 97.067 C 105.952 96.581,112.431 96.790,116.749 97.431 M193.200 185.615 C 187.887 186.515,179.773 189.360,179.267 190.500 C 179.193 190.665,178.956 190.800,178.739 190.800 C 176.991 190.800,167.540 199.391,164.708 203.554 C 164.018 204.569,163.337 205.490,163.197 205.600 C 163.056 205.710,162.504 206.610,161.970 207.600 C 161.437 208.590,160.910 209.490,160.799 209.600 C 160.689 209.710,160.400 210.250,160.156 210.800 C 159.913 211.350,159.328 212.582,158.857 213.538 C 158.386 214.494,158.000 215.608,158.000 216.014 C 158.000 216.420,157.841 216.851,157.646 216.971 C 157.451 217.092,157.190 217.687,157.064 218.295 C 156.939 218.903,156.638 220.300,156.395 221.400 C 155.116 227.209,154.798 234.191,155.548 240.000 C 156.311 245.907,156.476 246.800,156.842 247.026 C 157.039 247.148,157.200 247.766,157.200 248.400 C 157.200 249.034,157.380 249.664,157.600 249.800 C 157.820 249.936,158.000 250.487,158.000 251.024 C 158.000 251.561,158.180 252.000,158.400 252.000 C 158.620 252.000,158.800 252.245,158.800 252.545 C 158.800 255.847,167.973 268.153,173.526 272.300 C 174.336 272.905,175.348 273.715,175.775 274.100 C 176.202 274.485,176.772 274.800,177.042 274.800 C 177.312 274.800,177.593 274.946,177.667 275.125 C 177.903 275.702,184.114 278.619,187.000 279.509 C 195.937 282.264,208.117 281.815,216.200 278.433 C 223.871 275.223,228.873 271.220,235.784 262.760 C 236.891 261.404,239.600 256.895,239.600 256.407 C 239.600 256.183,239.780 256.000,240.000 256.000 C 240.220 256.000,240.400 255.735,240.400 255.412 C 240.400 255.089,240.760 254.183,241.200 253.400 C 241.640 252.617,242.000 251.632,242.000 251.211 C 242.000 250.791,242.180 250.336,242.400 250.200 C 242.620 250.064,242.800 249.524,242.800 249.000 C 242.800 248.476,242.980 247.936,243.200 247.800 C 243.420 247.664,243.600 246.969,243.600 246.256 C 243.600 245.543,243.760 244.789,243.957 244.580 C 245.234 243.218,245.230 222.960,243.951 222.170 C 243.758 222.051,243.600 221.254,243.600 220.400 C 243.600 219.546,243.420 218.736,243.200 218.600 C 242.980 218.464,242.800 218.001,242.800 217.571 C 242.800 217.141,242.641 216.477,242.447 216.095 C 242.252 215.713,241.911 214.950,241.689 214.400 C 240.564 211.623,238.123 206.881,237.570 206.400 C 237.443 206.290,236.610 205.117,235.719 203.794 C 233.920 201.124,228.572 195.499,226.400 193.993 C 225.630 193.459,224.651 192.702,224.225 192.311 C 223.798 191.920,223.228 191.600,222.958 191.600 C 222.688 191.600,222.407 191.465,222.333 191.300 C 221.896 190.315,214.990 187.387,210.600 186.325 C 206.904 185.431,196.737 185.016,193.200 185.615 " stroke="none" fill="#249cec" fill-rule="evenodd"></path><path id="path2" d="M105.862 97.100 C 105.760 97.265,106.514 97.347,107.538 97.283 C 110.712 97.084,111.109 96.911,108.524 96.854 C 107.162 96.825,105.964 96.935,105.862 97.100 M292.189 97.087 L 294.382 97.239 294.505 104.520 L 294.629 111.800 294.614 104.400 L 294.600 97.000 292.298 96.967 L 289.996 96.934 292.189 97.087 M112.100 97.476 C 112.485 97.576,113.115 97.576,113.500 97.476 C 113.885 97.375,113.570 97.293,112.800 97.293 C 112.030 97.293,111.715 97.375,112.100 97.476 M281.800 98.000 C 280.781 98.438,281.832 98.438,283.200 98.000 C 284.004 97.743,284.043 97.677,283.400 97.668 C 282.960 97.662,282.240 97.811,281.800 98.000 M140.000 107.800 C 140.746 108.570,141.447 109.200,141.557 109.200 C 141.667 109.200,141.146 108.570,140.400 107.800 C 139.654 107.030,138.953 106.400,138.843 106.400 C 138.733 106.400,139.254 107.030,140.000 107.800 M143.800 111.600 C 144.883 112.700,145.860 113.600,145.970 113.600 C 146.080 113.600,145.283 112.700,144.200 111.600 C 143.117 110.500,142.140 109.600,142.030 109.600 C 141.920 109.600,142.717 110.500,143.800 111.600 M106.000 111.994 C 106.330 112.211,107.035 112.391,107.567 112.394 C 108.851 112.402,108.525 112.175,106.800 111.858 C 105.815 111.677,105.578 111.718,106.000 111.994 M120.000 117.325 C 120.000 117.394,120.585 117.979,121.300 118.625 L 122.600 119.800 121.425 118.500 C 120.330 117.288,120.000 117.016,120.000 117.325 M138.749 145.000 C 138.965 145.440,139.434 146.160,139.793 146.600 L 140.444 147.400 140.051 146.600 C 139.835 146.160,139.366 145.440,139.007 145.000 L 138.356 144.200 138.749 145.000 M141.200 148.800 C 141.670 149.460,142.144 150.000,142.254 150.000 C 142.364 150.000,142.070 149.460,141.600 148.800 C 141.130 148.140,140.656 147.600,140.546 147.600 C 140.436 147.600,140.730 148.140,141.200 148.800 M151.400 161.600 C 152.259 162.480,153.052 163.200,153.162 163.200 C 153.272 163.200,152.659 162.480,151.800 161.600 C 150.941 160.720,150.148 160.000,150.038 160.000 C 149.928 160.000,150.541 160.720,151.400 161.600 M245.791 164.900 L 242.600 168.200 245.900 165.009 C 247.715 163.255,249.200 161.770,249.200 161.709 C 249.200 161.418,248.754 161.835,245.791 164.900 M198.691 163.889 C 199.401 163.977,200.661 163.979,201.491 163.892 C 202.321 163.805,201.740 163.733,200.200 163.731 C 198.660 163.729,197.981 163.800,198.691 163.889 M158.000 168.125 C 158.000 168.194,158.585 168.779,159.300 169.425 L 160.600 170.600 159.425 169.300 C 158.330 168.088,158.000 167.816,158.000 168.125 M240.800 178.925 C 240.800 178.994,241.385 179.579,242.100 180.225 L 243.400 181.400 242.225 180.100 C 241.130 178.888,240.800 178.616,240.800 178.925 M155.188 183.100 L 152.600 185.800 155.300 183.212 C 156.785 181.788,158.000 180.573,158.000 180.512 C 158.000 180.217,157.593 180.592,155.188 183.100 M195.500 185.082 C 195.995 185.178,196.805 185.178,197.300 185.082 C 197.795 184.987,197.390 184.909,196.400 184.909 C 195.410 184.909,195.005 184.987,195.500 185.082 M203.100 185.082 C 203.595 185.178,204.405 185.178,204.900 185.082 C 205.395 184.987,204.990 184.909,204.000 184.909 C 203.010 184.909,202.605 184.987,203.100 185.082 M190.600 185.600 C 190.096 185.817,190.022 185.944,190.400 185.944 C 190.730 185.944,191.360 185.789,191.800 185.600 C 192.304 185.383,192.378 185.256,192.000 185.256 C 191.670 185.256,191.040 185.411,190.600 185.600 M135.693 224.000 C 135.693 224.770,135.775 225.085,135.876 224.700 C 135.976 224.315,135.976 223.685,135.876 223.300 C 135.775 222.915,135.693 223.230,135.693 224.000 M135.293 227.600 C 135.293 228.370,135.375 228.685,135.476 228.300 C 135.576 227.915,135.576 227.285,135.476 226.900 C 135.375 226.515,135.293 226.830,135.293 227.600 M264.931 229.800 C 264.933 231.340,265.005 231.921,265.092 231.091 C 265.179 230.261,265.177 229.001,265.089 228.291 C 265.000 227.581,264.929 228.260,264.931 229.800 M245.337 233.400 C 245.339 235.160,245.409 235.830,245.493 234.889 C 245.578 233.949,245.577 232.509,245.491 231.689 C 245.405 230.870,245.336 231.640,245.337 233.400 M264.931 237.400 C 264.933 238.940,265.005 239.521,265.092 238.691 C 265.179 237.861,265.177 236.601,265.089 235.891 C 265.000 235.181,264.929 235.860,264.931 237.400 M135.301 239.800 C 135.305 240.680,135.387 240.993,135.483 240.495 C 135.579 239.998,135.575 239.278,135.475 238.895 C 135.375 238.513,135.296 238.920,135.301 239.800 M135.693 243.200 C 135.693 243.970,135.775 244.285,135.876 243.900 C 135.976 243.515,135.976 242.885,135.876 242.500 C 135.775 242.115,135.693 242.430,135.693 243.200 M163.200 262.000 C 163.670 262.660,164.144 263.200,164.254 263.200 C 164.364 263.200,164.070 262.660,163.600 262.000 C 163.130 261.340,162.656 260.800,162.546 260.800 C 162.436 260.800,162.730 261.340,163.200 262.000 M166.400 266.110 C 166.400 266.171,167.795 267.566,169.500 269.210 L 172.600 272.200 169.610 269.100 C 166.833 266.221,166.400 265.817,166.400 266.110 M247.775 280.900 L 246.600 282.200 247.900 281.025 C 248.615 280.379,249.200 279.794,249.200 279.725 C 249.200 279.416,248.870 279.688,247.775 280.900 M197.900 281.895 C 199.055 281.976,200.945 281.976,202.100 281.895 C 203.255 281.814,202.310 281.748,200.000 281.748 C 197.690 281.748,196.745 281.814,197.900 281.895 M244.400 284.600 C 243.428 285.590,242.723 286.400,242.833 286.400 C 242.943 286.400,243.828 285.590,244.800 284.600 C 245.772 283.610,246.477 282.800,246.367 282.800 C 246.257 282.800,245.372 283.610,244.400 284.600 M193.300 303.076 C 193.685 303.176,194.315 303.176,194.700 303.076 C 195.085 302.975,194.770 302.893,194.000 302.893 C 193.230 302.893,192.915 302.975,193.300 303.076 M205.505 303.083 C 206.002 303.179,206.722 303.175,207.105 303.075 C 207.487 302.975,207.080 302.896,206.200 302.901 C 205.320 302.905,205.007 302.987,205.505 303.083 " stroke="none" fill="#71bff4" fill-rule="evenodd"></path><path id="path3" d="M105.867 97.467 C 105.300 98.034,105.566 111.501,106.149 111.725 C 107.232 112.141,110.644 112.427,109.800 112.031 C 109.360 111.825,108.415 111.644,107.700 111.628 L 106.400 111.600 106.400 104.618 L 106.400 97.637 109.100 97.497 L 111.800 97.357 108.967 97.278 C 107.408 97.235,106.013 97.320,105.867 97.467 M290.100 97.491 C 290.925 97.578,292.275 97.578,293.100 97.491 C 293.925 97.405,293.250 97.334,291.600 97.334 C 289.950 97.334,289.275 97.405,290.100 97.491 M112.033 97.744 C 112.125 97.823,113.640 97.986,115.400 98.106 C 117.246 98.231,118.177 98.187,117.600 98.002 C 116.622 97.687,111.704 97.459,112.033 97.744 M283.200 97.992 C 282.636 98.169,283.507 98.214,285.200 98.097 C 286.850 97.983,288.275 97.824,288.367 97.745 C 288.687 97.467,284.192 97.682,283.200 97.992 M118.833 98.544 C 118.925 98.624,119.810 98.796,120.800 98.927 C 122.002 99.086,122.334 99.047,121.800 98.810 C 121.036 98.472,118.486 98.243,118.833 98.544 M279.000 98.810 C 278.466 99.047,278.798 99.086,280.000 98.927 C 280.990 98.796,281.875 98.624,281.967 98.544 C 282.314 98.243,279.764 98.472,279.000 98.810 M122.833 99.344 C 122.925 99.423,123.540 99.608,124.200 99.756 C 125.076 99.952,125.238 99.915,124.800 99.618 C 124.260 99.253,122.432 98.998,122.833 99.344 M276.000 99.600 C 275.205 100.114,276.204 100.114,277.400 99.600 L 278.200 99.256 277.400 99.234 C 276.960 99.222,276.330 99.387,276.000 99.600 M132.000 102.579 C 132.000 102.689,132.540 103.059,133.200 103.400 C 133.860 103.741,134.400 103.931,134.400 103.821 C 134.400 103.711,133.860 103.341,133.200 103.000 C 132.540 102.659,132.000 102.469,132.000 102.579 M267.900 103.029 C 267.295 103.357,266.800 103.710,266.800 103.813 C 266.800 104.199,267.432 103.957,268.400 103.200 C 269.589 102.270,269.411 102.209,267.900 103.029 M134.800 104.094 C 135.044 104.359,138.766 107.156,139.600 107.701 C 139.930 107.916,139.500 107.465,138.645 106.700 C 137.364 105.553,134.124 103.357,134.800 104.094 M264.369 105.501 C 262.508 107.075,257.991 111.725,258.160 111.894 C 258.215 111.948,259.776 110.489,261.630 108.652 C 263.483 106.815,265.359 105.120,265.797 104.886 C 266.235 104.652,266.491 104.358,266.366 104.232 C 266.241 104.107,265.342 104.678,264.369 105.501 M144.000 112.193 C 144.770 113.067,145.499 113.877,145.621 113.992 C 147.629 115.887,153.019 123.653,155.025 127.541 C 156.432 130.269,157.077 131.205,156.512 129.700 C 154.954 125.548,147.585 115.053,143.943 111.801 L 142.600 110.602 144.000 112.193 M290.600 112.000 L 289.800 112.344 290.600 112.349 C 291.040 112.352,292.120 112.205,293.000 112.023 L 294.600 111.692 293.000 111.674 C 292.120 111.664,291.040 111.811,290.600 112.000 M111.400 112.800 C 112.596 113.314,113.595 113.314,112.800 112.800 C 112.470 112.587,111.840 112.422,111.400 112.434 L 110.600 112.456 111.400 112.800 M256.177 114.300 C 253.939 117.097,253.871 117.200,254.251 117.195 C 254.443 117.192,254.998 116.607,255.483 115.895 C 255.969 115.183,256.749 114.105,257.217 113.500 C 257.684 112.895,257.983 112.400,257.882 112.400 C 257.780 112.400,257.012 113.255,256.177 114.300 M287.600 112.800 C 287.067 113.145,287.067 113.188,287.600 113.188 C 287.930 113.188,288.470 113.013,288.800 112.800 C 289.333 112.455,289.333 112.412,288.800 112.412 C 288.470 112.412,287.930 112.587,287.600 112.800 M115.453 114.347 C 118.566 116.063,119.959 117.093,122.777 119.761 C 124.195 121.102,125.095 121.843,124.777 121.407 C 123.211 119.256,118.749 115.593,115.994 114.197 C 113.311 112.837,112.915 112.947,115.453 114.347 M282.162 115.536 C 277.028 118.873,272.396 124.605,267.889 133.200 C 266.562 135.730,265.658 137.620,265.881 137.400 C 266.103 137.180,267.237 135.200,268.401 133.000 C 272.713 124.849,277.798 118.613,282.500 115.707 C 284.547 114.442,285.108 114.000,284.662 114.000 C 284.586 114.000,283.461 114.691,282.162 115.536 M253.119 118.300 C 251.410 120.277,246.216 128.772,244.009 133.200 C 242.646 135.935,243.688 134.580,245.393 131.400 C 247.546 127.386,249.456 124.245,251.902 120.700 C 253.942 117.743,254.427 116.787,253.119 118.300 M126.066 123.500 C 127.374 124.916,129.135 127.574,130.769 130.600 C 131.482 131.920,132.259 133.180,132.495 133.400 C 133.170 134.028,130.038 128.442,128.347 126.000 C 126.291 123.032,125.770 122.400,125.381 122.400 C 125.199 122.400,125.508 122.895,126.066 123.500 M158.418 135.039 C 158.393 135.657,159.644 138.089,159.871 137.863 C 159.974 137.760,159.693 136.984,159.247 136.138 C 158.800 135.292,158.427 134.797,158.418 135.039 M242.256 136.412 C 241.870 137.066,241.700 137.599,241.877 137.597 C 242.206 137.594,243.288 135.555,243.075 135.341 C 243.011 135.277,242.642 135.759,242.256 136.412 M133.600 135.699 C 133.600 136.097,136.410 140.800,136.649 140.800 C 136.764 140.800,136.278 139.765,135.569 138.500 C 134.264 136.172,133.600 135.227,133.600 135.699 M239.881 140.211 C 239.070 141.415,238.540 142.397,238.703 142.393 C 239.064 142.384,241.719 138.386,241.506 138.173 C 241.423 138.090,240.692 139.007,239.881 140.211 M264.586 139.300 L 263.952 140.600 264.767 139.600 C 265.552 138.637,265.808 138.000,265.410 138.000 C 265.306 138.000,264.935 138.585,264.586 139.300 M160.166 138.900 C 160.295 139.175,160.511 139.715,160.646 140.100 C 160.782 140.485,161.057 140.800,161.257 140.800 C 161.457 140.800,161.341 140.260,161.000 139.600 C 160.411 138.462,159.673 137.842,160.166 138.900 M262.986 142.100 L 262.352 143.400 263.167 142.400 C 263.952 141.437,264.208 140.800,263.810 140.800 C 263.706 140.800,263.335 141.385,262.986 142.100 M161.624 141.322 C 161.552 142.294,169.809 152.724,170.278 152.255 C 170.381 152.152,169.702 151.288,168.768 150.334 C 167.276 148.809,163.471 143.898,162.124 141.757 C 161.861 141.341,161.636 141.145,161.624 141.322 M138.237 143.800 C 138.597 144.350,138.957 144.800,139.037 144.800 C 139.117 144.800,138.978 144.350,138.727 143.800 C 138.477 143.250,138.116 142.800,137.927 142.800 C 137.737 142.800,137.876 143.250,138.237 143.800 M237.027 144.200 C 236.440 144.970,236.103 145.598,236.280 145.595 C 236.456 145.592,237.007 144.962,237.504 144.195 C 238.668 142.397,238.400 142.400,237.027 144.200 M259.942 146.897 C 254.712 155.069,243.969 167.062,237.338 172.130 C 234.392 174.381,234.397 174.407,238.313 177.535 C 240.231 179.068,242.236 180.789,242.770 181.361 C 243.303 181.932,243.908 182.400,244.114 182.400 C 244.597 182.400,242.226 180.250,238.267 177.098 L 235.135 174.603 237.467 172.615 C 246.012 165.330,256.643 153.268,260.962 145.956 C 262.135 143.972,261.352 144.693,259.942 146.897 M231.400 150.188 C 229.200 152.423,226.590 154.934,225.600 155.768 C 224.233 156.920,224.137 157.062,225.200 156.361 C 225.970 155.854,226.690 155.337,226.800 155.213 C 226.910 155.090,228.203 153.945,229.673 152.669 C 232.299 150.390,236.380 145.940,235.731 146.062 C 235.549 146.097,233.600 147.953,231.400 150.188 M143.429 151.500 C 147.502 156.934,156.712 167.421,157.084 167.049 C 157.177 166.957,156.138 165.737,154.776 164.340 C 151.703 161.189,144.764 152.939,143.767 151.252 C 143.360 150.564,142.865 150.000,142.666 150.000 C 142.468 150.000,142.811 150.675,143.429 151.500 M170.800 152.603 C 170.800 152.957,172.478 154.480,174.200 155.688 C 175.575 156.653,175.346 156.396,172.700 154.011 C 171.655 153.069,170.800 152.435,170.800 152.603 M175.600 156.695 C 175.600 157.084,177.214 158.119,177.451 157.882 C 177.547 157.786,177.169 157.410,176.612 157.045 C 176.056 156.680,175.600 156.522,175.600 156.695 M219.681 159.246 C 215.614 161.383,215.354 161.929,219.325 159.994 C 221.388 158.988,224.296 157.125,223.600 157.255 C 223.490 157.276,221.726 158.172,219.681 159.246 M178.007 158.318 C 178.020 158.819,185.260 162.009,186.333 161.986 C 186.700 161.978,186.010 161.615,184.800 161.180 C 183.590 160.745,181.565 159.860,180.300 159.212 C 179.035 158.565,178.003 158.162,178.007 158.318 M213.800 161.666 C 213.140 161.885,212.060 162.225,211.400 162.421 L 210.200 162.778 211.500 162.589 C 213.991 162.227,215.211 161.905,215.429 161.554 C 215.694 161.124,215.367 161.147,213.800 161.666 M187.269 162.202 C 187.950 162.883,197.772 164.438,200.770 164.340 C 201.932 164.302,202.162 164.232,201.400 164.148 C 200.740 164.075,198.400 163.816,196.200 163.572 C 194.000 163.329,191.570 162.983,190.800 162.805 C 187.381 162.012,187.017 161.950,187.269 162.202 M205.800 163.419 L 202.600 163.938 205.600 163.719 C 207.250 163.598,208.960 163.353,209.400 163.175 C 210.472 162.740,209.642 162.797,205.800 163.419 M157.600 167.292 C 157.600 167.682,161.619 171.411,163.534 172.798 C 165.684 174.356,165.722 174.243,162.100 177.100 C 159.312 179.299,152.700 185.776,151.190 187.786 C 150.866 188.219,152.940 186.239,155.800 183.385 C 158.660 180.532,162.026 177.478,163.281 176.599 C 166.305 174.479,166.314 174.521,162.200 171.322 C 161.760 170.980,160.545 169.875,159.500 168.865 C 158.455 167.856,157.600 167.148,157.600 167.292 M246.120 184.700 C 249.132 187.925,250.184 189.266,252.790 193.200 C 254.174 195.290,255.491 197.180,255.717 197.400 C 256.307 197.974,254.535 195.038,252.459 192.000 C 250.892 189.706,249.693 188.203,246.000 183.900 C 245.481 183.295,244.896 182.800,244.701 182.800 C 244.505 182.800,245.144 183.655,246.120 184.700 M193.200 184.819 C 192.123 184.997,192.927 185.033,195.200 184.908 C 197.290 184.793,199.075 184.631,199.167 184.549 C 199.441 184.303,195.135 184.498,193.200 184.819 M204.400 184.816 C 210.094 185.442,216.227 187.244,220.300 189.489 C 221.235 190.004,221.997 190.285,221.993 190.113 C 221.986 189.809,219.865 188.725,216.600 187.357 C 213.344 185.993,208.173 184.814,204.638 184.630 L 201.000 184.442 204.400 184.816 M189.200 185.600 C 188.396 185.857,188.357 185.923,189.000 185.932 C 189.440 185.938,190.160 185.789,190.600 185.600 C 191.619 185.162,190.568 185.162,189.200 185.600 M185.266 186.797 C 181.857 188.023,177.581 190.270,175.167 192.104 C 171.711 194.728,170.800 195.494,170.800 195.772 C 170.800 195.914,171.877 195.133,173.192 194.038 C 176.789 191.045,181.511 188.430,185.929 186.985 C 187.068 186.613,188.000 186.239,188.000 186.154 C 188.000 185.882,187.446 186.012,185.266 186.797 M149.944 189.500 C 148.793 190.889,148.306 191.600,148.504 191.600 C 148.614 191.600,149.186 190.970,149.773 190.200 C 150.863 188.771,150.995 188.232,149.944 189.500 M223.194 191.182 C 223.741 191.602,224.268 191.866,224.365 191.769 C 224.591 191.542,223.129 190.427,222.600 190.422 C 222.380 190.420,222.647 190.761,223.194 191.182 M147.525 192.700 C 146.839 193.503,144.324 197.713,143.642 199.200 C 143.054 200.482,143.522 199.805,146.195 195.500 C 148.357 192.019,148.668 191.364,147.525 192.700 M226.015 193.161 C 226.777 193.800,227.466 194.259,227.546 194.181 C 227.755 193.981,225.476 192.028,225.015 192.013 C 224.803 192.006,225.253 192.522,226.015 193.161 M230.647 197.224 C 233.358 200.058,234.872 201.742,236.231 203.436 C 236.828 204.180,236.834 204.179,236.453 203.400 C 235.948 202.366,232.747 198.596,230.850 196.800 C 227.955 194.061,227.844 194.293,230.647 197.224 M168.196 198.004 C 167.566 198.662,167.182 199.200,167.343 199.200 C 167.756 199.200,169.722 197.188,169.513 196.980 C 169.419 196.886,168.826 197.346,168.196 198.004 M256.073 198.200 C 256.510 199.498,258.087 202.446,258.256 202.278 C 258.366 202.168,258.090 201.385,257.643 200.539 C 256.794 198.929,255.842 197.512,256.073 198.200 M165.955 200.700 C 164.610 202.187,163.860 203.200,164.103 203.200 C 164.213 203.200,164.967 202.390,165.779 201.400 C 167.406 199.414,167.517 198.972,165.955 200.700 M162.998 204.402 C 162.598 204.844,162.366 205.299,162.482 205.415 C 162.597 205.530,162.990 205.169,163.355 204.612 C 164.152 203.396,163.993 203.302,162.998 204.402 M237.445 205.412 C 237.810 205.969,238.186 206.347,238.282 206.251 C 238.519 206.014,237.484 204.400,237.095 204.400 C 236.922 204.400,237.080 204.856,237.445 205.412 M238.986 207.900 C 239.335 208.615,239.706 209.200,239.810 209.200 C 240.208 209.200,239.952 208.563,239.167 207.600 L 238.352 206.600 238.986 207.900 M160.614 208.235 C 160.241 208.804,160.027 209.361,160.139 209.472 C 160.250 209.583,160.629 209.118,160.981 208.437 C 161.759 206.933,161.544 206.815,160.614 208.235 M138.600 210.800 C 138.450 211.273,138.417 211.750,138.527 211.860 C 138.637 211.970,138.850 211.673,139.000 211.200 C 139.150 210.727,139.183 210.250,139.073 210.140 C 138.963 210.030,138.750 210.327,138.600 210.800 M241.407 212.679 C 242.082 214.293,242.400 214.758,242.400 214.128 C 242.400 213.631,241.209 211.200,240.965 211.200 C 240.868 211.200,241.067 211.866,241.407 212.679 M137.829 213.429 C 137.681 214.015,137.651 214.584,137.761 214.694 C 137.871 214.804,138.081 214.415,138.229 213.829 C 138.376 213.242,138.406 212.673,138.296 212.563 C 138.186 212.453,137.976 212.842,137.829 213.429 M262.434 214.600 C 262.422 215.040,262.587 215.670,262.800 216.000 C 263.314 216.795,263.314 215.796,262.800 214.600 L 262.456 213.800 262.434 214.600 M242.428 215.076 C 242.518 216.115,243.144 216.996,243.172 216.124 C 243.187 215.642,243.020 215.136,242.800 215.000 C 242.580 214.864,242.413 214.898,242.428 215.076 M137.000 216.800 C 136.848 217.491,136.814 218.147,136.924 218.257 C 137.034 218.367,137.248 217.891,137.400 217.200 C 137.552 216.509,137.586 215.853,137.476 215.743 C 137.366 215.633,137.152 216.109,137.000 216.800 M157.067 215.867 C 156.920 216.013,156.811 216.508,156.825 216.967 C 156.849 217.733,156.882 217.723,157.234 216.842 C 157.626 215.863,157.544 215.389,157.067 215.867 M243.440 218.266 C 243.808 219.799,244.000 219.944,244.000 218.690 C 244.000 218.117,243.813 217.532,243.584 217.390 C 243.311 217.221,243.262 217.523,243.440 218.266 M263.256 218.200 C 263.256 218.640,263.411 219.360,263.600 219.800 L 263.944 220.600 263.944 219.800 C 263.944 219.360,263.789 218.640,263.600 218.200 L 263.256 217.400 263.256 218.200 M156.267 218.267 C 156.120 218.413,156.015 218.998,156.034 219.567 C 156.068 220.581,156.075 220.579,156.421 219.420 C 156.785 218.203,156.731 217.802,156.267 218.267 M136.200 221.200 C 136.046 222.110,136.011 222.944,136.121 223.054 C 136.231 223.164,136.446 222.510,136.600 221.600 C 136.754 220.690,136.789 219.856,136.679 219.746 C 136.569 219.636,136.354 220.290,136.200 221.200 M244.120 220.600 C 244.469 221.872,245.206 226.831,245.339 228.800 C 245.439 230.290,245.472 230.186,245.530 228.200 C 245.599 225.846,244.722 220.573,244.177 220.060 C 244.025 219.917,243.999 220.160,244.120 220.600 M155.400 222.259 C 155.261 223.107,154.980 224.664,154.774 225.720 C 153.734 231.056,155.009 247.142,156.598 248.731 C 156.850 248.983,156.567 247.310,156.136 246.000 C 154.807 241.962,154.407 230.104,155.410 224.436 C 155.737 222.585,155.925 220.992,155.828 220.895 C 155.731 220.798,155.538 221.412,155.400 222.259 M264.070 223.000 C 264.057 223.660,264.195 224.920,264.377 225.800 L 264.708 227.400 264.707 225.800 C 264.706 224.920,264.568 223.660,264.400 223.000 L 264.095 221.800 264.070 223.000 M135.461 227.900 C 135.149 231.200,135.188 237.031,135.541 240.000 C 135.686 241.223,135.809 238.426,135.817 233.700 C 135.833 224.250,135.822 224.075,135.461 227.900 M245.728 233.200 C 245.728 234.630,245.801 235.215,245.889 234.500 C 245.978 233.785,245.978 232.615,245.889 231.900 C 245.801 231.185,245.728 231.770,245.728 233.200 M264.893 233.600 C 264.893 234.370,264.975 234.685,265.076 234.300 C 265.176 233.915,265.176 233.285,265.076 232.900 C 264.975 232.515,264.893 232.830,264.893 233.600 M245.276 238.450 C 245.234 239.688,245.111 241.308,245.001 242.050 L 244.803 243.400 245.220 242.070 C 245.450 241.339,245.574 239.719,245.495 238.470 L 245.351 236.200 245.276 238.450 M264.200 242.400 C 264.044 243.747,264.006 244.939,264.116 245.049 C 264.226 245.159,264.444 244.147,264.600 242.800 C 264.756 241.453,264.794 240.261,264.684 240.151 C 264.574 240.041,264.356 241.053,264.200 242.400 M244.454 244.200 C 244.419 244.640,244.289 245.450,244.167 246.000 C 243.975 246.863,244.007 246.903,244.398 246.290 C 244.647 245.899,244.777 245.089,244.686 244.490 C 244.578 243.779,244.497 243.679,244.454 244.200 M136.080 244.800 C 136.080 245.350,136.224 246.250,136.400 246.800 L 136.720 247.800 136.720 246.800 C 136.720 246.250,136.576 245.350,136.400 244.800 L 136.080 243.800 136.080 244.800 M263.422 247.822 C 263.272 248.625,263.238 249.372,263.348 249.482 C 263.458 249.592,263.672 249.025,263.822 248.222 C 263.973 247.419,264.006 246.673,263.896 246.563 C 263.786 246.453,263.573 247.019,263.422 247.822 M243.488 248.083 C 243.372 248.587,243.083 249.618,242.845 250.373 C 242.608 251.128,242.560 251.578,242.737 251.373 C 243.222 250.814,244.162 247.628,243.915 247.381 C 243.796 247.263,243.605 247.579,243.488 248.083 M136.856 249.400 C 136.856 249.840,137.011 250.560,137.200 251.000 L 137.544 251.800 137.544 251.000 C 137.544 250.560,137.389 249.840,137.200 249.400 L 136.856 248.600 136.856 249.400 M156.828 249.876 C 156.813 250.358,156.980 250.864,157.200 251.000 C 157.673 251.292,157.673 250.901,157.200 249.800 C 156.869 249.029,156.855 249.031,156.828 249.876 M262.673 251.353 C 262.523 251.745,262.411 252.366,262.425 252.733 C 262.442 253.175,262.581 253.074,262.837 252.434 C 263.049 251.903,263.161 251.282,263.085 251.054 C 263.009 250.827,262.824 250.961,262.673 251.353 M137.634 252.800 C 137.646 253.130,137.811 253.760,138.000 254.200 L 138.344 255.000 138.366 254.200 C 138.378 253.760,138.213 253.130,138.000 252.800 C 137.655 252.267,137.615 252.267,137.634 252.800 M240.267 256.241 C 239.669 257.462,239.330 258.367,239.515 258.252 C 239.998 257.954,241.764 254.431,241.542 254.209 C 241.440 254.106,240.866 255.021,240.267 256.241 M138.412 255.600 C 138.412 255.930,138.587 256.470,138.800 256.800 C 139.145 257.333,139.188 257.333,139.188 256.800 C 139.188 256.470,139.013 255.930,138.800 255.600 C 138.455 255.067,138.412 255.067,138.412 255.600 M159.209 255.633 C 159.214 255.945,159.585 256.650,160.033 257.200 L 160.848 258.200 160.173 256.800 C 159.348 255.088,159.197 254.906,159.209 255.633 M139.212 258.000 C 139.212 258.330,139.387 258.870,139.600 259.200 C 139.945 259.733,139.988 259.733,139.988 259.200 C 139.988 258.870,139.813 258.330,139.600 258.000 C 139.255 257.467,139.212 257.467,139.212 258.000 M237.045 261.658 C 235.992 263.215,235.327 264.369,235.567 264.220 C 236.146 263.862,239.316 259.183,239.115 258.982 C 239.029 258.896,238.097 260.100,237.045 261.658 M260.184 259.670 C 260.026 260.181,259.536 261.372,259.097 262.315 C 258.657 263.259,258.388 264.122,258.499 264.233 C 258.610 264.344,259.181 263.235,259.768 261.768 C 260.355 260.302,260.754 259.021,260.654 258.921 C 260.555 258.821,260.343 259.158,260.184 259.670 M164.047 263.600 C 164.559 264.370,166.513 266.542,168.389 268.428 C 171.611 271.665,171.644 271.688,168.987 268.828 C 167.439 267.162,165.485 264.990,164.645 264.000 C 163.482 262.631,163.339 262.535,164.047 263.600 M230.164 269.377 C 227.170 272.362,224.739 274.380,222.684 275.586 C 219.612 277.388,218.583 278.380,221.453 276.773 C 225.176 274.687,230.395 270.438,233.180 267.223 C 236.361 263.552,235.109 264.445,230.164 269.377 M255.772 269.100 C 252.090 275.743,245.078 284.093,239.227 288.800 C 236.076 291.335,235.367 292.067,237.488 290.593 C 240.763 288.317,247.528 281.518,251.025 276.987 C 253.546 273.719,258.001 266.400,257.469 266.400 C 257.359 266.400,256.595 267.615,255.772 269.100 M143.836 268.400 C 147.080 275.044,163.721 294.030,163.585 290.934 C 163.577 290.750,162.902 290.093,162.085 289.474 C 156.253 285.053,144.860 271.773,144.791 269.315 C 144.786 269.142,144.415 268.550,143.967 268.000 L 143.152 267.000 143.836 268.400 M172.422 272.283 C 172.451 272.690,174.787 274.546,175.001 274.332 C 175.090 274.243,174.541 273.674,173.781 273.068 C 173.022 272.462,172.410 272.109,172.422 272.283 M175.600 274.695 C 175.600 275.084,177.214 276.119,177.451 275.882 C 177.547 275.786,177.169 275.410,176.612 275.045 C 176.056 274.680,175.600 274.522,175.600 274.695 M178.010 276.287 C 178.037 277.104,189.081 281.462,190.135 281.071 C 190.391 280.976,190.060 280.777,189.400 280.629 C 187.362 280.170,181.525 277.942,179.717 276.933 C 178.773 276.406,178.005 276.115,178.010 276.287 M218.000 278.109 C 216.858 278.685,212.387 280.201,210.600 280.618 C 209.940 280.772,209.609 280.976,209.865 281.071 C 210.636 281.357,219.200 278.339,219.200 277.781 C 219.200 277.523,219.116 277.546,218.000 278.109 M192.400 281.620 C 194.814 282.050,196.706 282.013,194.600 281.577 C 193.720 281.395,192.460 281.258,191.800 281.273 C 190.900 281.293,191.050 281.380,192.400 281.620 M205.200 281.600 C 203.201 282.021,205.252 282.038,207.600 281.620 C 209.224 281.332,209.263 281.300,208.000 281.303 C 207.230 281.304,205.970 281.438,205.200 281.600 M198.500 282.291 C 199.325 282.378,200.675 282.378,201.500 282.291 C 202.325 282.205,201.650 282.134,200.000 282.134 C 198.350 282.134,197.675 282.205,198.500 282.291 M164.894 292.090 C 166.082 293.100,168.400 294.547,168.400 294.279 C 168.400 294.188,167.365 293.449,166.100 292.637 C 164.835 291.825,164.292 291.579,164.894 292.090 M168.800 294.590 C 168.800 294.694,169.385 295.065,170.100 295.414 L 171.400 296.048 170.400 295.233 C 169.437 294.448,168.800 294.192,168.800 294.590 M229.511 295.360 C 227.187 296.741,227.182 297.006,229.500 295.841 C 230.655 295.261,231.600 294.700,231.600 294.593 C 231.600 294.249,231.029 294.458,229.511 295.360 M225.200 297.600 C 224.430 298.022,223.980 298.366,224.200 298.366 C 224.420 298.366,225.230 298.022,226.000 297.600 C 226.770 297.178,227.220 296.834,227.000 296.834 C 226.780 296.834,225.970 297.178,225.200 297.600 M220.000 299.600 C 219.467 299.945,219.467 299.988,220.000 299.988 C 220.330 299.988,220.870 299.813,221.200 299.600 C 221.733 299.255,221.733 299.212,221.200 299.212 C 220.870 299.212,220.330 299.387,220.000 299.600 M181.600 300.382 C 181.930 300.605,182.545 300.791,182.967 300.794 C 183.990 300.802,183.671 300.573,182.200 300.244 C 181.324 300.048,181.162 300.085,181.600 300.382 M217.400 300.400 L 216.600 300.744 217.400 300.766 C 217.840 300.778,218.470 300.613,218.800 300.400 C 219.595 299.886,218.596 299.886,217.400 300.400 M184.400 301.150 C 185.355 301.668,190.539 302.514,191.409 302.293 C 191.905 302.167,191.679 302.070,190.800 302.032 C 190.030 301.999,188.320 301.711,187.000 301.392 C 184.309 300.742,183.512 300.668,184.400 301.150 M214.000 301.227 C 210.012 302.211,202.343 302.894,197.400 302.706 C 194.256 302.587,192.912 302.634,194.000 302.825 C 198.817 303.671,216.400 302.212,216.400 300.967 C 216.400 300.738,215.657 300.819,214.000 301.227 " stroke="none" fill="#a8d8f9" fill-rule="evenodd"></path><path id="path4" d="M105.467 97.067 C 105.320 97.213,105.200 100.627,105.200 104.653 C 105.200 112.952,105.162 112.859,108.474 112.736 C 110.048 112.678,110.077 112.659,108.800 112.528 C 108.030 112.449,106.988 112.292,106.483 112.180 L 105.567 111.976 105.683 104.388 C 105.748 100.214,105.785 96.799,105.767 96.800 C 105.748 96.800,105.613 96.920,105.467 97.067 M111.505 97.083 C 112.002 97.179,112.722 97.175,113.105 97.075 C 113.487 96.975,113.080 96.896,112.200 96.901 C 111.320 96.905,111.007 96.987,111.505 97.083 M287.905 97.083 C 288.402 97.179,289.122 97.175,289.505 97.075 C 289.887 96.975,289.480 96.896,288.600 96.901 C 287.720 96.905,287.407 96.987,287.905 97.083 M114.705 97.483 C 115.202 97.579,115.922 97.575,116.305 97.475 C 116.687 97.375,116.280 97.296,115.400 97.301 C 114.520 97.305,114.207 97.387,114.705 97.483 M284.300 97.482 C 284.795 97.578,285.605 97.578,286.100 97.482 C 286.595 97.387,286.190 97.309,285.200 97.309 C 284.210 97.309,283.805 97.387,284.300 97.482 M270.212 101.224 C 269.338 101.660,268.438 102.205,268.212 102.437 C 267.864 102.792,271.881 100.961,272.367 100.543 C 272.837 100.139,271.610 100.527,270.212 101.224 M261.387 107.700 L 259.000 110.200 261.500 107.813 C 262.875 106.499,264.000 105.374,264.000 105.313 C 264.000 105.017,263.605 105.378,261.387 107.700 M294.173 111.981 C 293.968 112.184,292.990 112.419,292.000 112.505 L 290.200 112.660 292.000 112.724 C 293.709 112.785,295.226 112.293,294.762 111.828 C 294.643 111.710,294.379 111.779,294.173 111.981 M146.000 113.464 C 146.000 113.682,146.495 114.297,147.100 114.830 L 148.200 115.800 147.200 114.600 C 146.650 113.940,146.155 113.325,146.100 113.233 C 146.045 113.142,146.000 113.245,146.000 113.464 M248.352 124.500 C 248.090 124.995,247.615 125.850,247.296 126.400 C 246.739 127.359,246.743 127.367,247.388 126.600 C 248.186 125.652,249.305 123.600,249.024 123.600 C 248.916 123.600,248.614 124.005,248.352 124.500 M129.400 129.200 C 129.741 129.860,130.111 130.400,130.221 130.400 C 130.331 130.400,130.141 129.860,129.800 129.200 C 129.459 128.540,129.089 128.000,128.979 128.000 C 128.869 128.000,129.059 128.540,129.400 129.200 M131.000 132.000 C 131.341 132.660,131.711 133.200,131.821 133.200 C 131.931 133.200,131.741 132.660,131.400 132.000 C 131.059 131.340,130.689 130.800,130.579 130.800 C 130.469 130.800,130.659 131.340,131.000 132.000 M267.600 134.800 C 267.151 135.680,266.874 136.400,266.984 136.400 C 267.094 136.400,267.551 135.680,268.000 134.800 C 268.449 133.920,268.726 133.200,268.616 133.200 C 268.506 133.200,268.049 133.920,267.600 134.800 M235.625 145.165 C 234.648 146.394,234.160 147.147,234.540 146.838 C 235.429 146.115,237.742 143.199,237.548 143.046 C 237.467 142.982,236.601 143.935,235.625 145.165 M165.551 146.338 C 166.221 147.185,167.087 148.130,167.474 148.438 C 167.861 148.747,167.390 148.055,166.426 146.900 C 164.406 144.478,163.738 144.049,165.551 146.338 M169.583 150.900 C 170.564 151.945,171.419 152.800,171.483 152.800 C 171.784 152.800,171.466 152.441,169.700 150.783 L 167.800 149.000 169.583 150.900 M172.033 153.300 C 172.125 153.355,172.740 153.850,173.400 154.400 L 174.600 155.400 173.630 154.300 C 173.097 153.695,172.482 153.200,172.264 153.200 C 172.045 153.200,171.942 153.245,172.033 153.300 M252.700 157.414 C 251.701 158.750,251.831 159.123,252.846 157.833 C 253.311 157.242,253.626 156.695,253.546 156.618 C 253.466 156.541,253.085 156.900,252.700 157.414 M148.629 158.838 C 149.273 159.629,149.881 160.208,149.979 160.125 C 150.078 160.042,149.551 159.395,148.809 158.687 L 147.458 157.400 148.629 158.838 M250.204 160.396 C 249.574 161.054,249.135 161.656,249.229 161.734 C 249.323 161.812,249.913 161.274,250.539 160.538 C 251.954 158.877,251.745 158.788,250.204 160.396 M152.807 163.400 C 155.861 166.698,160.358 171.004,160.500 170.766 C 160.555 170.675,158.263 168.350,155.407 165.600 C 152.551 162.850,151.381 161.860,152.807 163.400 M191.800 162.800 C 192.240 162.989,192.960 163.138,193.400 163.132 C 194.043 163.123,194.004 163.057,193.200 162.800 C 191.832 162.362,190.781 162.362,191.800 162.800 M207.000 162.800 C 205.911 163.077,205.893 163.107,206.800 163.125 C 207.350 163.135,208.160 162.989,208.600 162.800 C 209.586 162.376,208.666 162.376,207.000 162.800 M197.505 163.483 C 198.002 163.579,198.722 163.575,199.105 163.475 C 199.487 163.375,199.080 163.296,198.200 163.301 C 197.320 163.305,197.007 163.387,197.505 163.483 M201.505 163.483 C 202.002 163.579,202.722 163.575,203.105 163.475 C 203.487 163.375,203.080 163.296,202.200 163.301 C 201.320 163.305,201.007 163.387,201.505 163.483 M245.200 165.800 C 244.228 166.790,243.523 167.600,243.633 167.600 C 243.743 167.600,244.628 166.790,245.600 165.800 C 246.572 164.810,247.277 164.000,247.167 164.000 C 247.057 164.000,246.172 164.810,245.200 165.800 M245.200 183.000 C 247.060 184.870,248.672 186.400,248.782 186.400 C 248.892 186.400,247.460 184.870,245.600 183.000 C 243.740 181.130,242.128 179.600,242.018 179.600 C 241.908 179.600,243.340 181.130,245.200 183.000 M155.586 182.300 L 153.400 184.600 155.791 182.400 C 157.106 181.190,158.261 180.155,158.357 180.100 C 158.454 180.045,158.362 180.000,158.153 180.000 C 157.944 180.000,156.789 181.035,155.586 182.300 M199.107 185.090 C 199.826 185.179,200.906 185.177,201.507 185.086 C 202.108 184.995,201.520 184.922,200.200 184.924 C 198.880 184.926,198.388 185.001,199.107 185.090 M191.800 185.603 C 191.285 185.826,191.713 185.867,193.000 185.718 C 194.100 185.591,195.075 185.423,195.167 185.344 C 195.514 185.045,192.564 185.272,191.800 185.603 M205.700 185.476 C 206.085 185.576,206.715 185.576,207.100 185.476 C 207.485 185.375,207.170 185.293,206.400 185.293 C 205.630 185.293,205.315 185.375,205.700 185.476 M151.555 186.700 C 150.281 188.108,149.456 189.200,149.666 189.200 C 149.757 189.200,150.508 188.390,151.335 187.400 C 152.987 185.424,153.135 184.953,151.555 186.700 M210.033 186.144 C 210.125 186.223,210.740 186.408,211.400 186.556 C 212.276 186.752,212.438 186.715,212.000 186.418 C 211.460 186.053,209.632 185.798,210.033 186.144 M250.000 188.400 C 250.697 189.280,251.357 190.000,251.467 190.000 C 251.577 190.000,251.097 189.280,250.400 188.400 C 249.703 187.520,249.043 186.800,248.933 186.800 C 248.823 186.800,249.303 187.520,250.000 188.400 M147.110 192.500 C 146.176 193.732,144.843 196.028,145.310 195.600 C 145.722 195.223,148.413 191.200,148.254 191.200 C 148.167 191.200,147.652 191.785,147.110 192.500 M169.379 197.700 C 166.429 200.807,165.027 202.400,165.240 202.400 C 165.345 202.400,166.831 200.870,168.542 199.000 C 171.967 195.258,172.535 194.376,169.379 197.700 M232.400 199.725 C 232.400 199.794,232.985 200.379,233.700 201.025 L 235.000 202.200 233.825 200.900 C 232.730 199.688,232.400 199.416,232.400 199.725 M236.096 204.368 C 236.812 205.450,237.461 206.273,237.538 206.196 C 237.700 206.033,235.250 202.400,234.978 202.400 C 234.877 202.400,235.380 203.285,236.096 204.368 M163.984 204.023 C 163.505 204.696,163.179 205.313,163.261 205.394 C 163.343 205.476,163.814 204.926,164.308 204.171 C 165.423 202.471,165.171 202.356,163.984 204.023 M161.800 207.200 C 161.459 207.860,161.269 208.400,161.379 208.400 C 161.489 208.400,161.859 207.860,162.200 207.200 C 162.541 206.540,162.731 206.000,162.621 206.000 C 162.511 206.000,162.141 206.540,161.800 207.200 M136.554 216.177 C 136.432 216.494,136.403 217.079,136.489 217.477 C 136.587 217.928,136.724 217.712,136.854 216.900 C 137.071 215.538,136.930 215.196,136.554 216.177 M263.868 218.600 C 264.171 220.577,264.402 220.914,264.394 219.367 C 264.391 218.725,264.216 217.930,264.005 217.600 C 263.745 217.191,263.701 217.510,263.868 218.600 M135.849 219.815 C 135.712 220.173,135.623 221.036,135.650 221.733 C 135.692 222.787,135.750 222.698,135.999 221.200 C 136.317 219.286,136.259 218.748,135.849 219.815 M264.701 224.200 C 264.814 225.740,264.972 227.075,265.053 227.167 C 265.347 227.500,265.135 222.978,264.820 222.200 C 264.635 221.742,264.584 222.598,264.701 224.200 M135.053 226.036 C 134.914 226.731,134.834 230.382,134.877 234.150 L 134.953 241.000 135.183 233.000 C 135.309 228.600,135.388 224.949,135.359 224.886 C 135.330 224.823,135.192 225.341,135.053 226.036 M244.468 225.400 C 244.462 225.840,244.611 226.560,244.800 227.000 C 245.238 228.019,245.238 226.968,244.800 225.600 C 244.543 224.796,244.477 224.757,244.468 225.400 M155.072 227.804 C 154.927 228.682,154.829 229.940,154.853 230.600 C 154.878 231.260,155.055 230.720,155.248 229.400 C 155.640 226.715,155.485 225.307,155.072 227.804 M265.348 233.600 C 265.348 235.910,265.414 236.855,265.495 235.700 C 265.576 234.545,265.576 232.655,265.495 231.500 C 265.414 230.345,265.348 231.290,265.348 233.600 M154.847 236.633 C 154.873 237.495,155.039 238.740,155.215 239.400 C 155.418 240.156,155.454 239.638,155.315 238.000 C 155.067 235.086,154.775 234.231,154.847 236.633 M244.656 239.684 C 244.521 240.188,244.427 240.960,244.446 241.400 C 244.465 241.840,244.645 241.498,244.846 240.640 C 245.236 238.978,245.070 238.140,244.656 239.684 M264.869 241.800 C 264.825 242.900,264.696 244.250,264.583 244.800 L 264.377 245.800 264.807 244.816 C 265.043 244.276,265.171 242.926,265.092 241.816 L 264.948 239.800 264.869 241.800 M135.606 245.633 C 135.609 246.385,135.777 247.261,135.979 247.579 C 136.216 247.954,136.265 247.530,136.118 246.379 C 135.835 244.170,135.598 243.825,135.606 245.633 M264.060 247.667 C 264.027 248.254,263.896 249.064,263.770 249.467 C 263.552 250.160,263.565 250.161,263.995 249.490 C 264.246 249.099,264.377 248.289,264.286 247.690 L 264.120 246.600 264.060 247.667 M136.400 250.176 C 136.400 250.713,136.547 251.244,136.728 251.355 C 136.908 251.467,136.977 251.027,136.882 250.379 C 136.672 248.949,136.400 248.835,136.400 250.176 M235.600 262.661 C 235.600 262.878,234.932 263.853,234.116 264.828 C 233.300 265.803,233.049 266.240,233.559 265.800 C 234.820 264.712,236.142 262.809,235.844 262.510 C 235.710 262.376,235.600 262.444,235.600 262.661 M231.178 268.300 L 229.800 269.800 231.300 268.422 C 232.696 267.138,232.984 266.800,232.678 266.800 C 232.612 266.800,231.937 267.475,231.178 268.300 M252.344 275.500 C 251.193 276.889,250.706 277.600,250.904 277.600 C 251.014 277.600,251.586 276.970,252.173 276.200 C 253.263 274.771,253.395 274.232,252.344 275.500 M152.401 281.396 C 153.170 282.273,153.845 283.068,153.900 283.162 C 153.955 283.256,154.087 283.247,154.193 283.141 C 154.299 283.035,153.624 282.240,152.693 281.374 L 151.001 279.800 152.401 281.396 M247.375 281.700 L 246.200 283.000 247.500 281.825 C 248.712 280.730,248.984 280.400,248.675 280.400 C 248.606 280.400,248.021 280.985,247.375 281.700 M192.100 281.076 C 192.485 281.176,193.115 281.176,193.500 281.076 C 193.885 280.975,193.570 280.893,192.800 280.893 C 192.030 280.893,191.715 280.975,192.100 281.076 M206.500 281.076 C 206.885 281.176,207.515 281.176,207.900 281.076 C 208.285 280.975,207.970 280.893,207.200 280.893 C 206.430 280.893,206.115 280.975,206.500 281.076 M196.105 281.487 C 196.714 281.579,197.614 281.577,198.105 281.482 C 198.597 281.387,198.100 281.311,197.000 281.314 C 195.900 281.317,195.497 281.395,196.105 281.487 M202.105 281.487 C 202.714 281.579,203.614 281.577,204.105 281.482 C 204.597 281.387,204.100 281.311,203.000 281.314 C 201.900 281.317,201.497 281.395,202.105 281.487 M241.262 287.640 C 240.526 288.309,239.988 288.921,240.066 288.999 C 240.144 289.077,240.901 288.524,241.748 287.771 C 242.595 287.017,243.133 286.405,242.944 286.412 C 242.755 286.418,241.998 286.971,241.262 287.640 M168.000 294.764 C 168.550 295.214,169.180 295.583,169.400 295.585 C 169.828 295.588,169.105 295.034,167.800 294.360 C 167.269 294.085,167.336 294.221,168.000 294.764 M228.000 296.800 C 226.790 297.439,225.941 297.971,226.113 297.981 C 226.538 298.007,230.400 296.036,230.400 295.793 C 230.400 295.526,230.455 295.503,228.000 296.800 M218.000 300.800 C 217.176 301.064,217.141 301.126,217.800 301.154 C 218.240 301.173,218.870 301.013,219.200 300.800 C 219.901 300.347,219.414 300.347,218.000 300.800 M181.633 300.944 C 181.725 301.023,182.340 301.208,183.000 301.356 C 183.876 301.552,184.038 301.515,183.600 301.218 C 183.060 300.853,181.232 300.598,181.633 300.944 M208.400 302.820 C 207.726 303.049,208.051 303.084,209.400 302.928 C 210.500 302.801,211.475 302.631,211.567 302.549 C 211.882 302.268,209.399 302.480,208.400 302.820 M197.900 303.495 C 199.055 303.576,200.945 303.576,202.100 303.495 C 203.255 303.414,202.310 303.348,200.000 303.348 C 197.690 303.348,196.745 303.414,197.900 303.495 " stroke="none" fill="#51b4f4" fill-rule="evenodd"></path></g></svg>